<?xml version="1.0" standalone="no"?>
<!DOCTYPE svg PUBLIC "-//W3C//DTD SVG 20010904//EN"
 "http://www.w3.org/TR/2001/REC-SVG-20010904/DTD/svg10.dtd">
<svg version="1.0" xmlns="http://www.w3.org/2000/svg"
 width="256.000000pt" height="256.000000pt" viewBox="0 0 256.000000 256.000000"
 preserveAspectRatio="xMidYMid meet">
<metadata>
Created by potrace 1.14, written by Peter Selinger 2001-2017
</metadata>
<g transform="translate(0.000000,256.000000) scale(0.100000,-0.100000)"
fill="#000000" stroke="none">
<path d="M0 1280 l0 -1280 78 29 c42 16 208 76 367 135 281 104 410 152 943
349 l254 94 -44 34 c-160 125 -274 310 -305 499 -21 122 3 372 39 418 6 6 7
12 4 12 -4 0 12 35 35 78 57 107 116 179 214 259 l35 30 -762 293 c-420 162
-784 302 -810 312 l-48 18 0 -1280z"/>
<path d="M1961 1745 c-154 -43 -274 -151 -331 -300 -34 -87 -34 -245 -1 -330
79 -200 253 -316 467 -310 200 5 361 120 434 310 34 87 34 245 1 330 -56 142
-173 253 -311 294 -68 21 -196 23 -259 6z"/>
</g>
</svg>
