<?xml version="1.0" standalone="no"?>
<!DOCTYPE svg PUBLIC "-//W3C//DTD SVG 20010904//EN"
 "http://www.w3.org/TR/2001/REC-SVG-20010904/DTD/svg10.dtd">
<svg version="1.0" xmlns="http://www.w3.org/2000/svg"
 width="700.000000pt" height="700.000000pt" viewBox="0 0 700.000000 700.000000"
 preserveAspectRatio="xMidYMid meet">
<metadata>
Created by potrace 1.14, written by Peter Selinger 2001-2017
</metadata>
<g transform="translate(0.000000,700.000000) scale(0.100000,-0.100000)"
fill="#000000" stroke="none">
<path d="M1650 6993 c-254 -10 -497 -44 -640 -89 -313 -98 -616 -348 -802
-662 -123 -206 -176 -428 -198 -837 -13 -240 -13 -3584 0 -3815 23 -412 76
-628 202 -840 137 -228 324 -412 560 -551 196 -115 423 -167 823 -189 238 -13
3572 -13 3810 0 503 28 735 100 1010 315 256 200 437 471 511 763 72 282 76
443 71 2567 -4 1883 -4 1895 -47 2142 -53 301 -173 527 -399 754 -227 226
-453 346 -754 399 -249 43 -250 43 -2202 45 -1028 1 -1904 0 -1945 -2z m2110
-1284 c867 -99 1603 -712 1864 -1551 69 -220 97 -413 97 -658 0 -245 -28 -438
-97 -659 -261 -839 -990 -1444 -1868 -1551 -117 -14 -396 -14 -516 0 -1020
122 -1827 928 -1950 1950 -15 122 -15 397 0 520 78 650 433 1225 985 1597 420
283 964 412 1485 352z"/>
<path d="M3360 5540 c-881 -60 -1629 -688 -1845 -1550 -78 -310 -78 -671 1
-981 37 -150 134 -409 153 -409 3 0 56 22 117 50 213 95 411 164 697 244 l57
17 0 875 0 876 34 34 34 34 871 0 c967 0 918 3 947 -65 12 -29 14 -174 14
-893 l0 -858 78 -18 c181 -43 525 -165 721 -257 46 -21 87 -39 91 -39 12 0 84
172 119 283 68 215 95 393 94 627 -2 324 -72 618 -213 899 -373 743 -1146
1187 -1970 1131z"/>
<path d="M3371 4264 c-180 -48 -326 -218 -351 -405 -5 -43 -10 -546 -10 -1207
l0 -1132 25 -10 c43 -16 199 -40 332 -50 145 -12 352 0 498 28 l90 17 3 525 2
526 163 53 c200 66 211 70 205 77 -11 10 -260 54 -398 69 -191 21 -513 29
-675 17 -71 -5 -131 -8 -132 -7 -2 1 36 58 84 127 86 124 88 126 131 132 89
12 463 -1 585 -20 l37 -6 0 434 c0 389 -2 440 -18 499 -69 250 -326 399 -571
333z"/>
<path d="M2394 2630 c-227 -67 -604 -219 -604 -244 0 -24 164 -229 264 -329
58 -57 147 -136 198 -175 94 -71 264 -182 280 -182 4 0 8 218 8 485 0 267 -3
485 -7 484 -5 0 -67 -18 -139 -39z"/>
<path d="M4440 2174 c0 -450 1 -486 17 -480 41 16 184 108 278 178 57 43 151
125 209 184 110 110 271 313 258 325 -14 14 -238 110 -367 159 -119 44 -363
120 -386 120 -5 0 -9 -201 -9 -486z"/>
</g>
</svg>
